<mxfile host="app.diagrams.net" modified="2023-08-17T15:43:42.055Z" agent="Mozilla/5.0 (Macintosh; Intel Mac OS X 10_15_7) AppleWebKit/537.36 (KHTML, like Gecko) Chrome/115.0.0.0 Safari/537.36" etag="yI5ofLpXsjUw94ZgJH5P" version="21.6.7" type="device">
  <diagram name="第 1 页" id="IHcS9fP_xHZr1-5scYtG">
    <mxGraphModel dx="2257" dy="781" grid="1" gridSize="10" guides="1" tooltips="1" connect="1" arrows="1" fold="1" page="1" pageScale="1" pageWidth="827" pageHeight="1169" math="0" shadow="0">
      <root>
        <mxCell id="0" />
        <mxCell id="1" parent="0" />
        <mxCell id="dz0Ih2SqZxT1NoJDapyO-1" value="VisionProcessing" style="swimlane;fontStyle=1;align=center;verticalAlign=top;childLayout=stackLayout;horizontal=1;startSize=26;horizontalStack=0;resizeParent=1;resizeParentMax=0;resizeLast=0;collapsible=1;marginBottom=0;whiteSpace=wrap;html=1;" parent="1" vertex="1">
          <mxGeometry x="-90" y="730" width="200" height="370" as="geometry" />
        </mxCell>
        <mxCell id="dz0Ih2SqZxT1NoJDapyO-5" value="+ img&amp;nbsp;" style="text;strokeColor=none;fillColor=none;align=left;verticalAlign=top;spacingLeft=4;spacingRight=4;overflow=hidden;rotatable=0;points=[[0,0.5],[1,0.5]];portConstraint=eastwest;whiteSpace=wrap;html=1;" parent="dz0Ih2SqZxT1NoJDapyO-1" vertex="1">
          <mxGeometry y="26" width="200" height="26" as="geometry" />
        </mxCell>
        <mxCell id="dz0Ih2SqZxT1NoJDapyO-6" value="+ cap:camera&lt;br&gt;" style="text;strokeColor=none;fillColor=none;align=left;verticalAlign=top;spacingLeft=4;spacingRight=4;overflow=hidden;rotatable=0;points=[[0,0.5],[1,0.5]];portConstraint=eastwest;whiteSpace=wrap;html=1;" parent="dz0Ih2SqZxT1NoJDapyO-1" vertex="1">
          <mxGeometry y="52" width="200" height="26" as="geometry" />
        </mxCell>
        <mxCell id="dz0Ih2SqZxT1NoJDapyO-9" value="+ open_camera()" style="text;strokeColor=none;fillColor=none;align=left;verticalAlign=top;spacingLeft=4;spacingRight=4;overflow=hidden;rotatable=0;points=[[0,0.5],[1,0.5]];portConstraint=eastwest;whiteSpace=wrap;html=1;" parent="dz0Ih2SqZxT1NoJDapyO-1" vertex="1">
          <mxGeometry y="78" width="200" height="26" as="geometry" />
        </mxCell>
        <mxCell id="dz0Ih2SqZxT1NoJDapyO-7" value="+ classifier()&amp;nbsp; &amp;nbsp;: AI&amp;nbsp;" style="text;strokeColor=none;fillColor=none;align=left;verticalAlign=top;spacingLeft=4;spacingRight=4;overflow=hidden;rotatable=0;points=[[0,0.5],[1,0.5]];portConstraint=eastwest;whiteSpace=wrap;html=1;" parent="dz0Ih2SqZxT1NoJDapyO-1" vertex="1">
          <mxGeometry y="104" width="200" height="26" as="geometry" />
        </mxCell>
        <mxCell id="dz0Ih2SqZxT1NoJDapyO-30" value="+ embedded_info_transfer()" style="text;strokeColor=none;fillColor=none;align=left;verticalAlign=top;spacingLeft=4;spacingRight=4;overflow=hidden;rotatable=0;points=[[0,0.5],[1,0.5]];portConstraint=eastwest;whiteSpace=wrap;html=1;" parent="dz0Ih2SqZxT1NoJDapyO-1" vertex="1">
          <mxGeometry y="130" width="200" height="30" as="geometry" />
        </mxCell>
        <mxCell id="dz0Ih2SqZxT1NoJDapyO-31" value="+ embedded_info_recv()" style="text;strokeColor=none;fillColor=none;align=left;verticalAlign=top;spacingLeft=4;spacingRight=4;overflow=hidden;rotatable=0;points=[[0,0.5],[1,0.5]];portConstraint=eastwest;whiteSpace=wrap;html=1;" parent="dz0Ih2SqZxT1NoJDapyO-1" vertex="1">
          <mxGeometry y="160" width="200" height="30" as="geometry" />
        </mxCell>
        <mxCell id="dz0Ih2SqZxT1NoJDapyO-32" value="+ UI_info_transfer()" style="text;strokeColor=none;fillColor=none;align=left;verticalAlign=top;spacingLeft=4;spacingRight=4;overflow=hidden;rotatable=0;points=[[0,0.5],[1,0.5]];portConstraint=eastwest;whiteSpace=wrap;html=1;" parent="dz0Ih2SqZxT1NoJDapyO-1" vertex="1">
          <mxGeometry y="190" width="200" height="30" as="geometry" />
        </mxCell>
        <mxCell id="dz0Ih2SqZxT1NoJDapyO-33" value="+ server_info_transfer()" style="text;strokeColor=none;fillColor=none;align=left;verticalAlign=top;spacingLeft=4;spacingRight=4;overflow=hidden;rotatable=0;points=[[0,0.5],[1,0.5]];portConstraint=eastwest;whiteSpace=wrap;html=1;" parent="dz0Ih2SqZxT1NoJDapyO-1" vertex="1">
          <mxGeometry y="220" width="200" height="30" as="geometry" />
        </mxCell>
        <mxCell id="dz0Ih2SqZxT1NoJDapyO-34" value="+ server_info_recv()" style="text;strokeColor=none;fillColor=none;align=left;verticalAlign=top;spacingLeft=4;spacingRight=4;overflow=hidden;rotatable=0;points=[[0,0.5],[1,0.5]];portConstraint=eastwest;whiteSpace=wrap;html=1;" parent="dz0Ih2SqZxT1NoJDapyO-1" vertex="1">
          <mxGeometry y="250" width="200" height="30" as="geometry" />
        </mxCell>
        <mxCell id="dz0Ih2SqZxT1NoJDapyO-36" value="+ update_data()" style="text;strokeColor=none;fillColor=none;align=left;verticalAlign=top;spacingLeft=4;spacingRight=4;overflow=hidden;rotatable=0;points=[[0,0.5],[1,0.5]];portConstraint=eastwest;whiteSpace=wrap;html=1;" parent="dz0Ih2SqZxT1NoJDapyO-1" vertex="1">
          <mxGeometry y="280" width="200" height="30" as="geometry" />
        </mxCell>
        <mxCell id="dz0Ih2SqZxT1NoJDapyO-139" value="+ identify()" style="text;strokeColor=none;fillColor=none;align=left;verticalAlign=top;spacingLeft=4;spacingRight=4;overflow=hidden;rotatable=0;points=[[0,0.5],[1,0.5]];portConstraint=eastwest;whiteSpace=wrap;html=1;" parent="dz0Ih2SqZxT1NoJDapyO-1" vertex="1">
          <mxGeometry y="310" width="200" height="30" as="geometry" />
        </mxCell>
        <mxCell id="dz0Ih2SqZxT1NoJDapyO-61" value="+ run()" style="text;strokeColor=none;fillColor=none;align=left;verticalAlign=top;spacingLeft=4;spacingRight=4;overflow=hidden;rotatable=0;points=[[0,0.5],[1,0.5]];portConstraint=eastwest;whiteSpace=wrap;html=1;" parent="dz0Ih2SqZxT1NoJDapyO-1" vertex="1">
          <mxGeometry y="340" width="200" height="30" as="geometry" />
        </mxCell>
        <mxCell id="dz0Ih2SqZxT1NoJDapyO-18" value="Resnet" style="swimlane;fontStyle=1;align=center;verticalAlign=top;childLayout=stackLayout;horizontal=1;startSize=26;horizontalStack=0;resizeParent=1;resizeParentMax=0;resizeLast=0;collapsible=1;marginBottom=0;whiteSpace=wrap;html=1;" parent="1" vertex="1">
          <mxGeometry x="-410" y="750" width="266" height="112" as="geometry" />
        </mxCell>
        <mxCell id="dz0Ih2SqZxT1NoJDapyO-19" value="+ model" style="text;strokeColor=none;fillColor=none;align=left;verticalAlign=top;spacingLeft=4;spacingRight=4;overflow=hidden;rotatable=0;points=[[0,0.5],[1,0.5]];portConstraint=eastwest;whiteSpace=wrap;html=1;" parent="dz0Ih2SqZxT1NoJDapyO-18" vertex="1">
          <mxGeometry y="26" width="266" height="26" as="geometry" />
        </mxCell>
        <mxCell id="dz0Ih2SqZxT1NoJDapyO-20" value="" style="line;strokeWidth=1;fillColor=none;align=left;verticalAlign=middle;spacingTop=-1;spacingLeft=3;spacingRight=3;rotatable=0;labelPosition=right;points=[];portConstraint=eastwest;strokeColor=inherit;" parent="dz0Ih2SqZxT1NoJDapyO-18" vertex="1">
          <mxGeometry y="52" width="266" height="8" as="geometry" />
        </mxCell>
        <mxCell id="dz0Ih2SqZxT1NoJDapyO-21" value="+ load_model(): return model" style="text;strokeColor=none;fillColor=none;align=left;verticalAlign=top;spacingLeft=4;spacingRight=4;overflow=hidden;rotatable=0;points=[[0,0.5],[1,0.5]];portConstraint=eastwest;whiteSpace=wrap;html=1;" parent="dz0Ih2SqZxT1NoJDapyO-18" vertex="1">
          <mxGeometry y="60" width="266" height="26" as="geometry" />
        </mxCell>
        <mxCell id="dz0Ih2SqZxT1NoJDapyO-22" value="+ classifier()" style="text;strokeColor=none;fillColor=none;align=left;verticalAlign=top;spacingLeft=4;spacingRight=4;overflow=hidden;rotatable=0;points=[[0,0.5],[1,0.5]];portConstraint=eastwest;whiteSpace=wrap;html=1;" parent="dz0Ih2SqZxT1NoJDapyO-18" vertex="1">
          <mxGeometry y="86" width="266" height="26" as="geometry" />
        </mxCell>
        <mxCell id="dz0Ih2SqZxT1NoJDapyO-23" style="edgeStyle=orthogonalEdgeStyle;rounded=0;orthogonalLoop=1;jettySize=auto;html=1;entryX=0;entryY=0.5;entryDx=0;entryDy=0;" parent="1" source="dz0Ih2SqZxT1NoJDapyO-21" target="dz0Ih2SqZxT1NoJDapyO-9" edge="1">
          <mxGeometry relative="1" as="geometry">
            <Array as="points">
              <mxPoint x="-130" y="823" />
              <mxPoint x="-130" y="789" />
            </Array>
          </mxGeometry>
        </mxCell>
        <mxCell id="dz0Ih2SqZxT1NoJDapyO-25" value="call" style="edgeLabel;html=1;align=center;verticalAlign=middle;resizable=0;points=[];" parent="dz0Ih2SqZxT1NoJDapyO-23" vertex="1" connectable="0">
          <mxGeometry x="-0.0833" y="1" relative="1" as="geometry">
            <mxPoint as="offset" />
          </mxGeometry>
        </mxCell>
        <mxCell id="dz0Ih2SqZxT1NoJDapyO-26" value="AudioProcessing" style="swimlane;fontStyle=0;childLayout=stackLayout;horizontal=1;startSize=26;fillColor=none;horizontalStack=0;resizeParent=1;resizeParentMax=0;resizeLast=0;collapsible=1;marginBottom=0;whiteSpace=wrap;html=1;" parent="1" vertex="1">
          <mxGeometry x="120" y="730" width="206" height="234" as="geometry" />
        </mxCell>
        <mxCell id="dz0Ih2SqZxT1NoJDapyO-29" value="+ updata_data()" style="text;strokeColor=none;fillColor=none;align=left;verticalAlign=top;spacingLeft=4;spacingRight=4;overflow=hidden;rotatable=0;points=[[0,0.5],[1,0.5]];portConstraint=eastwest;whiteSpace=wrap;html=1;" parent="dz0Ih2SqZxT1NoJDapyO-26" vertex="1">
          <mxGeometry y="26" width="206" height="32" as="geometry" />
        </mxCell>
        <mxCell id="dz0Ih2SqZxT1NoJDapyO-39" value="+ embedded_info_transfer()" style="text;strokeColor=none;fillColor=none;align=left;verticalAlign=top;spacingLeft=4;spacingRight=4;overflow=hidden;rotatable=0;points=[[0,0.5],[1,0.5]];portConstraint=eastwest;whiteSpace=wrap;html=1;" parent="dz0Ih2SqZxT1NoJDapyO-26" vertex="1">
          <mxGeometry y="58" width="206" height="30" as="geometry" />
        </mxCell>
        <mxCell id="dz0Ih2SqZxT1NoJDapyO-41" value="+ UI_info_transfer()" style="text;strokeColor=none;fillColor=none;align=left;verticalAlign=top;spacingLeft=4;spacingRight=4;overflow=hidden;rotatable=0;points=[[0,0.5],[1,0.5]];portConstraint=eastwest;whiteSpace=wrap;html=1;" parent="dz0Ih2SqZxT1NoJDapyO-26" vertex="1">
          <mxGeometry y="88" width="206" height="30" as="geometry" />
        </mxCell>
        <mxCell id="dz0Ih2SqZxT1NoJDapyO-42" value="+ server_info_transfer()" style="text;strokeColor=none;fillColor=none;align=left;verticalAlign=top;spacingLeft=4;spacingRight=4;overflow=hidden;rotatable=0;points=[[0,0.5],[1,0.5]];portConstraint=eastwest;whiteSpace=wrap;html=1;" parent="dz0Ih2SqZxT1NoJDapyO-26" vertex="1">
          <mxGeometry y="118" width="206" height="30" as="geometry" />
        </mxCell>
        <mxCell id="dz0Ih2SqZxT1NoJDapyO-43" value="+ server_info_recv()" style="text;strokeColor=none;fillColor=none;align=left;verticalAlign=top;spacingLeft=4;spacingRight=4;overflow=hidden;rotatable=0;points=[[0,0.5],[1,0.5]];portConstraint=eastwest;whiteSpace=wrap;html=1;" parent="dz0Ih2SqZxT1NoJDapyO-26" vertex="1">
          <mxGeometry y="148" width="206" height="30" as="geometry" />
        </mxCell>
        <mxCell id="dz0Ih2SqZxT1NoJDapyO-40" value="+ embedded_info_recv()" style="text;strokeColor=none;fillColor=none;align=left;verticalAlign=top;spacingLeft=4;spacingRight=4;overflow=hidden;rotatable=0;points=[[0,0.5],[1,0.5]];portConstraint=eastwest;whiteSpace=wrap;html=1;" parent="dz0Ih2SqZxT1NoJDapyO-26" vertex="1">
          <mxGeometry y="178" width="206" height="30" as="geometry" />
        </mxCell>
        <mxCell id="dz0Ih2SqZxT1NoJDapyO-62" value="+ run()" style="text;strokeColor=none;fillColor=none;align=left;verticalAlign=top;spacingLeft=4;spacingRight=4;overflow=hidden;rotatable=0;points=[[0,0.5],[1,0.5]];portConstraint=eastwest;whiteSpace=wrap;html=1;" parent="dz0Ih2SqZxT1NoJDapyO-26" vertex="1">
          <mxGeometry y="208" width="206" height="26" as="geometry" />
        </mxCell>
        <mxCell id="dz0Ih2SqZxT1NoJDapyO-37" value="data" style="html=1;whiteSpace=wrap;" parent="1" vertex="1">
          <mxGeometry x="359" y="30" width="110" height="50" as="geometry" />
        </mxCell>
        <mxCell id="dz0Ih2SqZxT1NoJDapyO-51" value="PlacingProcessing" style="swimlane;fontStyle=1;align=center;verticalAlign=top;childLayout=stackLayout;horizontal=1;startSize=26;horizontalStack=0;resizeParent=1;resizeParentMax=0;resizeLast=0;collapsible=1;marginBottom=0;whiteSpace=wrap;html=1;" parent="1" vertex="1">
          <mxGeometry x="345" y="730" width="190" height="276" as="geometry" />
        </mxCell>
        <mxCell id="dz0Ih2SqZxT1NoJDapyO-53" value="" style="line;strokeWidth=1;fillColor=none;align=left;verticalAlign=middle;spacingTop=-1;spacingLeft=3;spacingRight=3;rotatable=0;labelPosition=right;points=[];portConstraint=eastwest;strokeColor=inherit;" parent="dz0Ih2SqZxT1NoJDapyO-51" vertex="1">
          <mxGeometry y="26" width="190" height="8" as="geometry" />
        </mxCell>
        <mxCell id="dz0Ih2SqZxT1NoJDapyO-54" value="+ wait_voice()" style="text;strokeColor=none;fillColor=none;align=left;verticalAlign=top;spacingLeft=4;spacingRight=4;overflow=hidden;rotatable=0;points=[[0,0.5],[1,0.5]];portConstraint=eastwest;whiteSpace=wrap;html=1;" parent="dz0Ih2SqZxT1NoJDapyO-51" vertex="1">
          <mxGeometry y="34" width="190" height="26" as="geometry" />
        </mxCell>
        <mxCell id="dz0Ih2SqZxT1NoJDapyO-68" value="+ embedded_info_recv()" style="text;strokeColor=none;fillColor=none;align=left;verticalAlign=top;spacingLeft=4;spacingRight=4;overflow=hidden;rotatable=0;points=[[0,0.5],[1,0.5]];portConstraint=eastwest;whiteSpace=wrap;html=1;" parent="dz0Ih2SqZxT1NoJDapyO-51" vertex="1">
          <mxGeometry y="60" width="190" height="30" as="geometry" />
        </mxCell>
        <mxCell id="dz0Ih2SqZxT1NoJDapyO-67" value="+ embedded_info_transfer()" style="text;strokeColor=none;fillColor=none;align=left;verticalAlign=top;spacingLeft=4;spacingRight=4;overflow=hidden;rotatable=0;points=[[0,0.5],[1,0.5]];portConstraint=eastwest;whiteSpace=wrap;html=1;" parent="dz0Ih2SqZxT1NoJDapyO-51" vertex="1">
          <mxGeometry y="90" width="190" height="34" as="geometry" />
        </mxCell>
        <mxCell id="dz0Ih2SqZxT1NoJDapyO-69" value="+ server_info_transfer()" style="text;strokeColor=none;fillColor=none;align=left;verticalAlign=top;spacingLeft=4;spacingRight=4;overflow=hidden;rotatable=0;points=[[0,0.5],[1,0.5]];portConstraint=eastwest;whiteSpace=wrap;html=1;" parent="dz0Ih2SqZxT1NoJDapyO-51" vertex="1">
          <mxGeometry y="124" width="190" height="30" as="geometry" />
        </mxCell>
        <mxCell id="dz0Ih2SqZxT1NoJDapyO-70" value="+ server_info_recv()" style="text;strokeColor=none;fillColor=none;align=left;verticalAlign=top;spacingLeft=4;spacingRight=4;overflow=hidden;rotatable=0;points=[[0,0.5],[1,0.5]];portConstraint=eastwest;whiteSpace=wrap;html=1;" parent="dz0Ih2SqZxT1NoJDapyO-51" vertex="1">
          <mxGeometry y="154" width="190" height="30" as="geometry" />
        </mxCell>
        <mxCell id="dz0Ih2SqZxT1NoJDapyO-73" value="+ UI_info_transfer()" style="text;strokeColor=none;fillColor=none;align=left;verticalAlign=top;spacingLeft=4;spacingRight=4;overflow=hidden;rotatable=0;points=[[0,0.5],[1,0.5]];portConstraint=eastwest;whiteSpace=wrap;html=1;" parent="dz0Ih2SqZxT1NoJDapyO-51" vertex="1">
          <mxGeometry y="184" width="190" height="30" as="geometry" />
        </mxCell>
        <mxCell id="dz0Ih2SqZxT1NoJDapyO-84" value="+ updata_data()" style="text;strokeColor=none;fillColor=none;align=left;verticalAlign=top;spacingLeft=4;spacingRight=4;overflow=hidden;rotatable=0;points=[[0,0.5],[1,0.5]];portConstraint=eastwest;whiteSpace=wrap;html=1;" parent="dz0Ih2SqZxT1NoJDapyO-51" vertex="1">
          <mxGeometry y="214" width="190" height="32" as="geometry" />
        </mxCell>
        <mxCell id="dz0Ih2SqZxT1NoJDapyO-72" value="+ run()" style="text;strokeColor=none;fillColor=none;align=left;verticalAlign=top;spacingLeft=4;spacingRight=4;overflow=hidden;rotatable=0;points=[[0,0.5],[1,0.5]];portConstraint=eastwest;whiteSpace=wrap;html=1;" parent="dz0Ih2SqZxT1NoJDapyO-51" vertex="1">
          <mxGeometry y="246" width="190" height="30" as="geometry" />
        </mxCell>
        <mxCell id="dz0Ih2SqZxT1NoJDapyO-55" value="SpeechInterception" style="swimlane;fontStyle=1;align=center;verticalAlign=top;childLayout=stackLayout;horizontal=1;startSize=26;horizontalStack=0;resizeParent=1;resizeParentMax=0;resizeLast=0;collapsible=1;marginBottom=0;whiteSpace=wrap;html=1;" parent="1" vertex="1">
          <mxGeometry x="490" y="340" width="160" height="230" as="geometry" />
        </mxCell>
        <mxCell id="dz0Ih2SqZxT1NoJDapyO-56" value="+ speech_to_text()" style="text;strokeColor=none;fillColor=none;align=left;verticalAlign=top;spacingLeft=4;spacingRight=4;overflow=hidden;rotatable=0;points=[[0,0.5],[1,0.5]];portConstraint=eastwest;whiteSpace=wrap;html=1;" parent="dz0Ih2SqZxT1NoJDapyO-55" vertex="1">
          <mxGeometry y="26" width="160" height="26" as="geometry" />
        </mxCell>
        <mxCell id="dz0Ih2SqZxT1NoJDapyO-57" value="" style="line;strokeWidth=1;fillColor=none;align=left;verticalAlign=middle;spacingTop=-1;spacingLeft=3;spacingRight=3;rotatable=0;labelPosition=right;points=[];portConstraint=eastwest;strokeColor=inherit;" parent="dz0Ih2SqZxT1NoJDapyO-55" vertex="1">
          <mxGeometry y="52" width="160" height="8" as="geometry" />
        </mxCell>
        <mxCell id="dz0Ih2SqZxT1NoJDapyO-58" value="+ text_to_speech()" style="text;strokeColor=none;fillColor=none;align=left;verticalAlign=top;spacingLeft=4;spacingRight=4;overflow=hidden;rotatable=0;points=[[0,0.5],[1,0.5]];portConstraint=eastwest;whiteSpace=wrap;html=1;" parent="dz0Ih2SqZxT1NoJDapyO-55" vertex="1">
          <mxGeometry y="60" width="160" height="26" as="geometry" />
        </mxCell>
        <mxCell id="dz0Ih2SqZxT1NoJDapyO-60" value="+ identify()" style="text;strokeColor=none;fillColor=none;align=left;verticalAlign=top;spacingLeft=4;spacingRight=4;overflow=hidden;rotatable=0;points=[[0,0.5],[1,0.5]];portConstraint=eastwest;whiteSpace=wrap;html=1;" parent="dz0Ih2SqZxT1NoJDapyO-55" vertex="1">
          <mxGeometry y="86" width="160" height="26" as="geometry" />
        </mxCell>
        <mxCell id="dz0Ih2SqZxT1NoJDapyO-63" value="+ server_info_transfer()" style="text;strokeColor=none;fillColor=none;align=left;verticalAlign=top;spacingLeft=4;spacingRight=4;overflow=hidden;rotatable=0;points=[[0,0.5],[1,0.5]];portConstraint=eastwest;whiteSpace=wrap;html=1;" parent="dz0Ih2SqZxT1NoJDapyO-55" vertex="1">
          <mxGeometry y="112" width="160" height="30" as="geometry" />
        </mxCell>
        <mxCell id="dz0Ih2SqZxT1NoJDapyO-64" value="+ server_info_recv()" style="text;strokeColor=none;fillColor=none;align=left;verticalAlign=top;spacingLeft=4;spacingRight=4;overflow=hidden;rotatable=0;points=[[0,0.5],[1,0.5]];portConstraint=eastwest;whiteSpace=wrap;html=1;" parent="dz0Ih2SqZxT1NoJDapyO-55" vertex="1">
          <mxGeometry y="142" width="160" height="30" as="geometry" />
        </mxCell>
        <mxCell id="dz0Ih2SqZxT1NoJDapyO-65" value="+ convey_introductions()" style="text;strokeColor=none;fillColor=none;align=left;verticalAlign=top;spacingLeft=4;spacingRight=4;overflow=hidden;rotatable=0;points=[[0,0.5],[1,0.5]];portConstraint=eastwest;whiteSpace=wrap;html=1;" parent="dz0Ih2SqZxT1NoJDapyO-55" vertex="1">
          <mxGeometry y="172" width="160" height="30" as="geometry" />
        </mxCell>
        <mxCell id="dz0Ih2SqZxT1NoJDapyO-66" value="+ run()" style="text;strokeColor=none;fillColor=none;align=left;verticalAlign=top;spacingLeft=4;spacingRight=4;overflow=hidden;rotatable=0;points=[[0,0.5],[1,0.5]];portConstraint=eastwest;whiteSpace=wrap;html=1;" parent="dz0Ih2SqZxT1NoJDapyO-55" vertex="1">
          <mxGeometry y="202" width="160" height="28" as="geometry" />
        </mxCell>
        <mxCell id="dz0Ih2SqZxT1NoJDapyO-74" value="RemoveProcessing" style="swimlane;fontStyle=1;align=center;verticalAlign=top;childLayout=stackLayout;horizontal=1;startSize=26;horizontalStack=0;resizeParent=1;resizeParentMax=0;resizeLast=0;collapsible=1;marginBottom=0;whiteSpace=wrap;html=1;" parent="1" vertex="1">
          <mxGeometry x="550" y="730" width="190" height="276" as="geometry" />
        </mxCell>
        <mxCell id="dz0Ih2SqZxT1NoJDapyO-75" value="" style="line;strokeWidth=1;fillColor=none;align=left;verticalAlign=middle;spacingTop=-1;spacingLeft=3;spacingRight=3;rotatable=0;labelPosition=right;points=[];portConstraint=eastwest;strokeColor=inherit;" parent="dz0Ih2SqZxT1NoJDapyO-74" vertex="1">
          <mxGeometry y="26" width="190" height="8" as="geometry" />
        </mxCell>
        <mxCell id="dz0Ih2SqZxT1NoJDapyO-76" value="+ wait_voice()" style="text;strokeColor=none;fillColor=none;align=left;verticalAlign=top;spacingLeft=4;spacingRight=4;overflow=hidden;rotatable=0;points=[[0,0.5],[1,0.5]];portConstraint=eastwest;whiteSpace=wrap;html=1;" parent="dz0Ih2SqZxT1NoJDapyO-74" vertex="1">
          <mxGeometry y="34" width="190" height="26" as="geometry" />
        </mxCell>
        <mxCell id="dz0Ih2SqZxT1NoJDapyO-77" value="+ embedded_info_recv()" style="text;strokeColor=none;fillColor=none;align=left;verticalAlign=top;spacingLeft=4;spacingRight=4;overflow=hidden;rotatable=0;points=[[0,0.5],[1,0.5]];portConstraint=eastwest;whiteSpace=wrap;html=1;" parent="dz0Ih2SqZxT1NoJDapyO-74" vertex="1">
          <mxGeometry y="60" width="190" height="30" as="geometry" />
        </mxCell>
        <mxCell id="dz0Ih2SqZxT1NoJDapyO-78" value="+ embedded_info_transfer()" style="text;strokeColor=none;fillColor=none;align=left;verticalAlign=top;spacingLeft=4;spacingRight=4;overflow=hidden;rotatable=0;points=[[0,0.5],[1,0.5]];portConstraint=eastwest;whiteSpace=wrap;html=1;" parent="dz0Ih2SqZxT1NoJDapyO-74" vertex="1">
          <mxGeometry y="90" width="190" height="34" as="geometry" />
        </mxCell>
        <mxCell id="dz0Ih2SqZxT1NoJDapyO-79" value="+ server_info_transfer()" style="text;strokeColor=none;fillColor=none;align=left;verticalAlign=top;spacingLeft=4;spacingRight=4;overflow=hidden;rotatable=0;points=[[0,0.5],[1,0.5]];portConstraint=eastwest;whiteSpace=wrap;html=1;" parent="dz0Ih2SqZxT1NoJDapyO-74" vertex="1">
          <mxGeometry y="124" width="190" height="30" as="geometry" />
        </mxCell>
        <mxCell id="dz0Ih2SqZxT1NoJDapyO-80" value="+ server_info_recv()" style="text;strokeColor=none;fillColor=none;align=left;verticalAlign=top;spacingLeft=4;spacingRight=4;overflow=hidden;rotatable=0;points=[[0,0.5],[1,0.5]];portConstraint=eastwest;whiteSpace=wrap;html=1;" parent="dz0Ih2SqZxT1NoJDapyO-74" vertex="1">
          <mxGeometry y="154" width="190" height="30" as="geometry" />
        </mxCell>
        <mxCell id="dz0Ih2SqZxT1NoJDapyO-85" value="+ updata_data()" style="text;strokeColor=none;fillColor=none;align=left;verticalAlign=top;spacingLeft=4;spacingRight=4;overflow=hidden;rotatable=0;points=[[0,0.5],[1,0.5]];portConstraint=eastwest;whiteSpace=wrap;html=1;" parent="dz0Ih2SqZxT1NoJDapyO-74" vertex="1">
          <mxGeometry y="184" width="190" height="32" as="geometry" />
        </mxCell>
        <mxCell id="dz0Ih2SqZxT1NoJDapyO-82" value="+ UI_info_transfer()" style="text;strokeColor=none;fillColor=none;align=left;verticalAlign=top;spacingLeft=4;spacingRight=4;overflow=hidden;rotatable=0;points=[[0,0.5],[1,0.5]];portConstraint=eastwest;whiteSpace=wrap;html=1;" parent="dz0Ih2SqZxT1NoJDapyO-74" vertex="1">
          <mxGeometry y="216" width="190" height="30" as="geometry" />
        </mxCell>
        <mxCell id="dz0Ih2SqZxT1NoJDapyO-83" value="+ run()" style="text;strokeColor=none;fillColor=none;align=left;verticalAlign=top;spacingLeft=4;spacingRight=4;overflow=hidden;rotatable=0;points=[[0,0.5],[1,0.5]];portConstraint=eastwest;whiteSpace=wrap;html=1;" parent="dz0Ih2SqZxT1NoJDapyO-74" vertex="1">
          <mxGeometry y="246" width="190" height="30" as="geometry" />
        </mxCell>
        <mxCell id="dz0Ih2SqZxT1NoJDapyO-131" style="edgeStyle=orthogonalEdgeStyle;rounded=0;orthogonalLoop=1;jettySize=auto;html=1;entryX=0.5;entryY=0;entryDx=0;entryDy=0;" parent="1" source="dz0Ih2SqZxT1NoJDapyO-118" target="dz0Ih2SqZxT1NoJDapyO-122" edge="1">
          <mxGeometry relative="1" as="geometry" />
        </mxCell>
        <mxCell id="dz0Ih2SqZxT1NoJDapyO-118" value="Main_Process" style="swimlane;fontStyle=1;align=center;verticalAlign=top;childLayout=stackLayout;horizontal=1;startSize=26;horizontalStack=0;resizeParent=1;resizeParentMax=0;resizeLast=0;collapsible=1;marginBottom=0;whiteSpace=wrap;html=1;" parent="1" vertex="1">
          <mxGeometry x="60" y="200" width="160" height="86" as="geometry" />
        </mxCell>
        <mxCell id="dz0Ih2SqZxT1NoJDapyO-119" value="+ data : dict&amp;nbsp;" style="text;strokeColor=none;fillColor=none;align=left;verticalAlign=top;spacingLeft=4;spacingRight=4;overflow=hidden;rotatable=0;points=[[0,0.5],[1,0.5]];portConstraint=eastwest;whiteSpace=wrap;html=1;" parent="dz0Ih2SqZxT1NoJDapyO-118" vertex="1">
          <mxGeometry y="26" width="160" height="26" as="geometry" />
        </mxCell>
        <mxCell id="dz0Ih2SqZxT1NoJDapyO-120" value="" style="line;strokeWidth=1;fillColor=none;align=left;verticalAlign=middle;spacingTop=-1;spacingLeft=3;spacingRight=3;rotatable=0;labelPosition=right;points=[];portConstraint=eastwest;strokeColor=inherit;" parent="dz0Ih2SqZxT1NoJDapyO-118" vertex="1">
          <mxGeometry y="52" width="160" height="8" as="geometry" />
        </mxCell>
        <mxCell id="dz0Ih2SqZxT1NoJDapyO-121" value="+ run()" style="text;strokeColor=none;fillColor=none;align=left;verticalAlign=top;spacingLeft=4;spacingRight=4;overflow=hidden;rotatable=0;points=[[0,0.5],[1,0.5]];portConstraint=eastwest;whiteSpace=wrap;html=1;" parent="dz0Ih2SqZxT1NoJDapyO-118" vertex="1">
          <mxGeometry y="60" width="160" height="26" as="geometry" />
        </mxCell>
        <mxCell id="dz0Ih2SqZxT1NoJDapyO-122" value="Processing" style="swimlane;fontStyle=1;align=center;verticalAlign=top;childLayout=stackLayout;horizontal=1;startSize=26;horizontalStack=0;resizeParent=1;resizeParentMax=0;resizeLast=0;collapsible=1;marginBottom=0;whiteSpace=wrap;html=1;" parent="1" vertex="1">
          <mxGeometry x="70" y="340" width="160" height="86" as="geometry" />
        </mxCell>
        <mxCell id="dz0Ih2SqZxT1NoJDapyO-137" style="text;strokeColor=none;fillColor=none;align=left;verticalAlign=top;spacingLeft=4;spacingRight=4;overflow=hidden;rotatable=0;points=[[0,0.5],[1,0.5]];portConstraint=eastwest;whiteSpace=wrap;html=1;" parent="dz0Ih2SqZxT1NoJDapyO-122" vertex="1">
          <mxGeometry y="26" width="160" height="26" as="geometry" />
        </mxCell>
        <mxCell id="dz0Ih2SqZxT1NoJDapyO-123" value="+ audio_play()" style="text;strokeColor=none;fillColor=none;align=left;verticalAlign=top;spacingLeft=4;spacingRight=4;overflow=hidden;rotatable=0;points=[[0,0.5],[1,0.5]];portConstraint=eastwest;whiteSpace=wrap;html=1;" parent="dz0Ih2SqZxT1NoJDapyO-122" vertex="1">
          <mxGeometry y="52" width="160" height="26" as="geometry" />
        </mxCell>
        <mxCell id="dz0Ih2SqZxT1NoJDapyO-124" value="" style="line;strokeWidth=1;fillColor=none;align=left;verticalAlign=middle;spacingTop=-1;spacingLeft=3;spacingRight=3;rotatable=0;labelPosition=right;points=[];portConstraint=eastwest;strokeColor=inherit;" parent="dz0Ih2SqZxT1NoJDapyO-122" vertex="1">
          <mxGeometry y="78" width="160" height="8" as="geometry" />
        </mxCell>
        <mxCell id="dz0Ih2SqZxT1NoJDapyO-132" style="edgeStyle=orthogonalEdgeStyle;rounded=0;orthogonalLoop=1;jettySize=auto;html=1;entryX=0.5;entryY=0;entryDx=0;entryDy=0;" parent="1" source="dz0Ih2SqZxT1NoJDapyO-121" target="dz0Ih2SqZxT1NoJDapyO-55" edge="1">
          <mxGeometry relative="1" as="geometry" />
        </mxCell>
        <mxCell id="dz0Ih2SqZxT1NoJDapyO-133" style="edgeStyle=orthogonalEdgeStyle;rounded=0;orthogonalLoop=1;jettySize=auto;html=1;entryX=1;entryY=0.5;entryDx=0;entryDy=0;" parent="1" source="dz0Ih2SqZxT1NoJDapyO-66" target="dz0Ih2SqZxT1NoJDapyO-123" edge="1">
          <mxGeometry relative="1" as="geometry" />
        </mxCell>
        <mxCell id="dz0Ih2SqZxT1NoJDapyO-146" value="server&lt;br&gt;" style="text;html=1;strokeColor=none;fillColor=none;align=center;verticalAlign=middle;whiteSpace=wrap;rounded=0;" parent="1" vertex="1">
          <mxGeometry x="230" y="1240" width="60" height="30" as="geometry" />
        </mxCell>
        <mxCell id="GEDF5M70O5LssxUc2uKN-1" value="Process_chat" style="swimlane;fontStyle=1;align=center;verticalAlign=top;childLayout=stackLayout;horizontal=1;startSize=26;horizontalStack=0;resizeParent=1;resizeParentMax=0;resizeLast=0;collapsible=1;marginBottom=0;whiteSpace=wrap;html=1;" vertex="1" parent="1">
          <mxGeometry x="30" y="1340" width="160" height="268" as="geometry" />
        </mxCell>
        <mxCell id="GEDF5M70O5LssxUc2uKN-2" value="+ mode_classify()" style="text;strokeColor=none;fillColor=none;align=left;verticalAlign=top;spacingLeft=4;spacingRight=4;overflow=hidden;rotatable=0;points=[[0,0.5],[1,0.5]];portConstraint=eastwest;whiteSpace=wrap;html=1;" vertex="1" parent="GEDF5M70O5LssxUc2uKN-1">
          <mxGeometry y="26" width="160" height="26" as="geometry" />
        </mxCell>
        <mxCell id="GEDF5M70O5LssxUc2uKN-3" value="" style="line;strokeWidth=1;fillColor=none;align=left;verticalAlign=middle;spacingTop=-1;spacingLeft=3;spacingRight=3;rotatable=0;labelPosition=right;points=[];portConstraint=eastwest;strokeColor=inherit;" vertex="1" parent="GEDF5M70O5LssxUc2uKN-1">
          <mxGeometry y="52" width="160" height="8" as="geometry" />
        </mxCell>
        <mxCell id="GEDF5M70O5LssxUc2uKN-4" value="+ garbage_classify()" style="text;strokeColor=none;fillColor=none;align=left;verticalAlign=top;spacingLeft=4;spacingRight=4;overflow=hidden;rotatable=0;points=[[0,0.5],[1,0.5]];portConstraint=eastwest;whiteSpace=wrap;html=1;" vertex="1" parent="GEDF5M70O5LssxUc2uKN-1">
          <mxGeometry y="60" width="160" height="26" as="geometry" />
        </mxCell>
        <mxCell id="GEDF5M70O5LssxUc2uKN-5" value="+ judge_finished()" style="text;strokeColor=none;fillColor=none;align=left;verticalAlign=top;spacingLeft=4;spacingRight=4;overflow=hidden;rotatable=0;points=[[0,0.5],[1,0.5]];portConstraint=eastwest;whiteSpace=wrap;html=1;" vertex="1" parent="GEDF5M70O5LssxUc2uKN-1">
          <mxGeometry y="86" width="160" height="26" as="geometry" />
        </mxCell>
        <mxCell id="GEDF5M70O5LssxUc2uKN-6" value="+ chat()" style="text;strokeColor=none;fillColor=none;align=left;verticalAlign=top;spacingLeft=4;spacingRight=4;overflow=hidden;rotatable=0;points=[[0,0.5],[1,0.5]];portConstraint=eastwest;whiteSpace=wrap;html=1;" vertex="1" parent="GEDF5M70O5LssxUc2uKN-1">
          <mxGeometry y="112" width="160" height="26" as="geometry" />
        </mxCell>
        <mxCell id="GEDF5M70O5LssxUc2uKN-10" value="+ recv_begin_or_data()" style="text;strokeColor=none;fillColor=none;align=left;verticalAlign=top;spacingLeft=4;spacingRight=4;overflow=hidden;rotatable=0;points=[[0,0.5],[1,0.5]];portConstraint=eastwest;whiteSpace=wrap;html=1;" vertex="1" parent="GEDF5M70O5LssxUc2uKN-1">
          <mxGeometry y="138" width="160" height="26" as="geometry" />
        </mxCell>
        <mxCell id="GEDF5M70O5LssxUc2uKN-9" value="+ send_dict()" style="text;strokeColor=none;fillColor=none;align=left;verticalAlign=top;spacingLeft=4;spacingRight=4;overflow=hidden;rotatable=0;points=[[0,0.5],[1,0.5]];portConstraint=eastwest;whiteSpace=wrap;html=1;" vertex="1" parent="GEDF5M70O5LssxUc2uKN-1">
          <mxGeometry y="164" width="160" height="26" as="geometry" />
        </mxCell>
        <mxCell id="GEDF5M70O5LssxUc2uKN-8" value="+ mp3_to_text()" style="text;strokeColor=none;fillColor=none;align=left;verticalAlign=top;spacingLeft=4;spacingRight=4;overflow=hidden;rotatable=0;points=[[0,0.5],[1,0.5]];portConstraint=eastwest;whiteSpace=wrap;html=1;" vertex="1" parent="GEDF5M70O5LssxUc2uKN-1">
          <mxGeometry y="190" width="160" height="26" as="geometry" />
        </mxCell>
        <mxCell id="GEDF5M70O5LssxUc2uKN-14" value="+ text_to_mp3()" style="text;strokeColor=none;fillColor=none;align=left;verticalAlign=top;spacingLeft=4;spacingRight=4;overflow=hidden;rotatable=0;points=[[0,0.5],[1,0.5]];portConstraint=eastwest;whiteSpace=wrap;html=1;" vertex="1" parent="GEDF5M70O5LssxUc2uKN-1">
          <mxGeometry y="216" width="160" height="26" as="geometry" />
        </mxCell>
        <mxCell id="GEDF5M70O5LssxUc2uKN-25" value="+ run()" style="text;strokeColor=none;fillColor=none;align=left;verticalAlign=top;spacingLeft=4;spacingRight=4;overflow=hidden;rotatable=0;points=[[0,0.5],[1,0.5]];portConstraint=eastwest;whiteSpace=wrap;html=1;" vertex="1" parent="GEDF5M70O5LssxUc2uKN-1">
          <mxGeometry y="242" width="160" height="26" as="geometry" />
        </mxCell>
        <mxCell id="GEDF5M70O5LssxUc2uKN-17" value="ChatGPT" style="swimlane;fontStyle=0;childLayout=stackLayout;horizontal=1;startSize=26;fillColor=none;horizontalStack=0;resizeParent=1;resizeParentMax=0;resizeLast=0;collapsible=1;marginBottom=0;whiteSpace=wrap;html=1;" vertex="1" parent="1">
          <mxGeometry x="205" y="1340" width="140" height="52" as="geometry" />
        </mxCell>
        <mxCell id="GEDF5M70O5LssxUc2uKN-19" value="+ response()" style="text;strokeColor=none;fillColor=none;align=left;verticalAlign=top;spacingLeft=4;spacingRight=4;overflow=hidden;rotatable=0;points=[[0,0.5],[1,0.5]];portConstraint=eastwest;whiteSpace=wrap;html=1;" vertex="1" parent="GEDF5M70O5LssxUc2uKN-17">
          <mxGeometry y="26" width="140" height="26" as="geometry" />
        </mxCell>
        <mxCell id="GEDF5M70O5LssxUc2uKN-21" value="Server" style="swimlane;fontStyle=0;childLayout=stackLayout;horizontal=1;startSize=26;fillColor=none;horizontalStack=0;resizeParent=1;resizeParentMax=0;resizeLast=0;collapsible=1;marginBottom=0;whiteSpace=wrap;html=1;" vertex="1" parent="1">
          <mxGeometry x="420" y="1340" width="140" height="52" as="geometry" />
        </mxCell>
      </root>
    </mxGraphModel>
  </diagram>
</mxfile>
